<?xml version="1.0" encoding="utf-8"?>
<!-- Generator: Adobe Illustrator 16.0.0, SVG Export Plug-In . SVG Version: 6.00 Build 0)  -->
<!DOCTYPE svg PUBLIC "-//W3C//DTD SVG 1.1//EN" "http://www.w3.org/Graphics/SVG/1.1/DTD/svg11.dtd">
<svg version="1.1" id="Layer_1" xmlns="http://www.w3.org/2000/svg" xmlns:xlink="http://www.w3.org/1999/xlink" x="0px" y="0px"
	 width="62px" height="49px" viewBox="0 0 62 49" enable-background="new 0 0 62 49" xml:space="preserve">
<polygon fill-rule="evenodd" clip-rule="evenodd" fill="#FFFFFF" points="30.897,0.164 0.159,11.071 0.159,29.91 30.897,19.003 
	61.636,29.91 61.636,11.071 "/>
<g>
	<path fill="#FFFFFF" d="M2.935,42.269l-2.776,6.567h1.453l0.592-1.463h2.739l0.592,1.463h1.49l-2.776-6.567H2.935z M2.712,46.104
		l0.861-2.114l0.861,2.114H2.712z"/>
	<polygon fill="#FFFFFF" points="16.263,46.329 13.229,42.315 11.915,42.315 11.915,48.836 13.321,48.836 13.321,44.689 
		16.458,48.836 17.669,48.836 17.669,42.315 16.263,42.315 	"/>
	<path fill="#FFFFFF" d="M25.335,42.269l-2.775,6.567h1.453l0.592-1.463h2.738l0.593,1.463h1.489l-2.775-6.567H25.335z
		 M25.114,46.104l0.859-2.114l0.861,2.114H25.114z"/>
	<path fill="#FFFFFF" d="M36.842,42.315h-2.525v6.521h2.525c2.035,0,3.441-1.426,3.441-3.262
		C40.283,43.722,38.877,42.315,36.842,42.315z M36.842,47.54H35.74v-3.931h1.102c1.166,0,1.952,0.811,1.952,1.965
		C38.794,46.748,38.008,47.54,36.842,47.54z"/>
	<polygon fill="#FFFFFF" points="46.858,46.19 49.91,46.19 49.91,44.915 46.858,44.915 46.858,43.592 50.327,43.592 50.327,42.315 
		45.442,42.315 45.442,48.836 50.374,48.836 50.374,47.56 46.858,47.56 	"/>
	<path fill="#FFFFFF" d="M59.067,42.269h-1.313l-2.777,6.567h1.452l0.594-1.463h2.737l0.594,1.463h1.488L59.067,42.269z
		 M57.531,46.104l0.859-2.114l0.86,2.114H57.531z"/>
</g>
</svg>
